# xmcd
#
# Track frame offsets:
#  182
#  12707
#  22727
#  34517
#  45410
#  54690
#  65725
#  78790
#  88895
#
# Disc length: 1352 seconds
#
# Revision: 0
# Processed by: cddbd v1.4PL0 Copyright (c) Steve Scherf et al.
# Submitted via: AltoMP3_Maker 3.0
#
DISCID=69054609
DTITLE=VERONICA CASTRO - VIVA LA BANDA ......
DYEAR=1900
DGENRE=
TTITLE0=SALUD DINERO Y AMOR
TTITLE1=POPURRI EL GALLO TUERTO
TTITLE2=CARAY
TTITLE3=NI POR FAVOR
TTITLE4=AMOR CHIQUITO
TTITLE5=LA BANDA DOMINGUERA
TTITLE6=POPURRI NANA PANCHA
TTITLE7=ESTA NOCHE LA PASO CONTIGO
TTITLE8=POPURRI PAPALOTE
EXTD=
EXTT0=
EXTT1=
EXTT2=
EXTT3=
EXTT4=
EXTT5=
EXTT6=
EXTT7=
EXTT8=
PLAYORDER=
